<svg preserveAspectRatio="none" overflow="visible" style="display: block;" width="18.7905" height="46.5719" viewBox="0 0 18.7905 46.5719" fill="none" xmlns="http://www.w3.org/2000/svg">
<g id="Group 2">
<path id="Vector 3" d="M8.56022 0.41571C8.5993 0.660279 8.55751 0.980868 8.50016 1.22451C8.48237 1.30087 8.40286 1.2622 8.387 1.31491C8.35609 1.41801 8.39508 1.51405 8.35826 1.61593C8.34566 1.64969 8.21971 1.60766 8.20939 1.64306C8.15373 1.83706 8.18581 2.02059 8.15904 2.21712C8.02695 3.18513 7.97967 4.13666 7.92228 5.11651C7.90347 5.4396 7.78917 5.83235 7.83915 6.16606C7.8451 6.20501 7.95565 6.18179 7.96476 6.1892C8.10425 6.30545 7.88107 6.2668 7.85142 6.3427C7.73434 6.64396 7.72416 6.97896 7.76683 7.26888C7.7853 7.39222 8.00488 7.26855 7.88163 7.39275C7.87331 7.40137 7.75591 7.37007 7.74339 7.4039C7.71523 7.48061 7.73621 7.62615 7.72691 7.6856C7.70839 7.80018 7.70957 7.81913 7.70823 7.92751C7.70538 8.07566 7.64703 8.25187 7.67363 8.41082C7.67965 8.44475 7.8 8.39983 7.82048 8.45394C7.84092 8.50811 7.83072 8.65138 7.80235 8.69968C7.77397 8.748 7.67938 8.72742 7.6577 8.73598C7.4747 8.80631 7.72815 8.97205 7.73442 8.99337C7.84122 9.38216 7.69684 9.71558 7.69725 10.0805C7.69787 10.3576 7.74553 10.6538 7.739 10.9175C7.73074 11.2316 7.66553 11.4977 7.67674 11.8029C7.67778 11.8351 7.81928 11.7973 7.82084 11.8367C7.83731 12.2545 7.82188 12.6694 7.72636 13.0855C7.71666 13.1272 7.59242 13.0734 7.5753 13.1151C7.4732 13.3703 7.22794 13.7742 7.76884 13.9258C7.74772 14.0986 7.7259 14.3085 7.61686 14.4632C7.54669 14.5629 7.41135 14.466 7.4691 14.5885C7.48197 14.6162 7.60049 14.5802 7.61082 14.6217C7.65421 14.7961 7.61568 14.9867 7.67692 15.1593C7.68966 15.1944 7.79586 15.1848 7.81498 15.1947C7.96986 15.2783 7.71384 15.4175 7.69523 15.4478C7.5565 15.6788 7.6111 15.8475 7.60771 16.0626C7.60686 16.1126 7.74952 16.0535 7.75383 16.1016C7.77427 16.3508 7.76201 16.6089 7.69871 16.853C7.68429 16.9072 7.56277 16.8573 7.54966 16.8833C7.49334 16.9976 7.72285 17.023 7.67326 17.1327C7.6631 17.1558 7.55908 17.1428 7.54765 17.147C7.36831 17.213 7.62242 17.2703 7.62803 17.2873C7.70469 17.5021 7.43941 17.6394 7.47697 17.8469C7.48173 17.8717 7.61336 17.8157 7.6187 17.8855C7.65503 18.3504 7.61887 18.842 7.51359 19.3022C7.4974 19.3737 7.39852 19.3226 7.38634 19.3271C7.19588 19.4005 7.45107 19.448 7.46068 19.4713C7.52985 19.6554 7.31585 19.8273 7.61979 19.9523C7.51432 20.7317 7.685 21.5075 7.4127 22.2805C7.40955 22.2903 7.28387 22.2727 7.27812 22.2923C7.20755 22.5284 7.40288 22.4831 7.64177 22.6393C7.70175 22.6786 7.41334 22.7983 7.39219 22.8089C7.31429 22.8475 7.12731 22.8075 7.11223 22.8204C6.99375 22.9273 7.61209 22.9099 7.61229 23.0542C7.61126 23.0587 7.49744 23.0397 7.48613 23.0518C7.4506 23.0894 7.49582 23.1267 7.45665 23.1635C7.36599 23.2478 7.06554 23.2778 7.2404 23.4064C7.2631 23.4227 7.61384 23.3979 7.59727 23.5267C7.59037 23.578 7.59638 23.8053 7.57365 23.869C7.55095 23.9326 7.43792 23.8889 7.43303 23.8934C7.28357 24.0648 7.22162 23.9998 7.00035 24.0857C6.77991 24.1716 7.30568 24.1478 7.36436 24.1828C7.42288 24.2178 7.29957 24.3435 7.2567 24.3744C7.21381 24.4053 7.14199 24.3668 7.11772 24.3942C6.95916 24.5762 7.37869 24.4741 7.46214 24.5341C7.65973 24.6754 7.26982 24.7856 7.23161 24.915C7.22129 24.95 7.3101 24.9214 7.3184 24.9526C7.35012 25.0761 7.22846 25.1504 7.34001 25.2909C7.35819 25.3139 7.59261 25.4275 7.42058 25.501C7.39577 25.5115 7.2986 25.4819 7.27684 25.5345C7.24417 25.6131 7.22294 25.7548 7.25542 25.8393C7.27944 25.9017 7.43955 25.8302 7.38981 25.9088C7.36761 25.9437 7.27394 25.879 7.24003 25.9446C7.20614 26.0098 7.21025 26.1766 7.21348 26.2401C7.21679 26.3034 7.33824 26.2688 7.34642 26.2739C7.39329 26.3049 7.45185 26.4265 7.4517 26.4372C7.46653 26.9792 7.26182 27.479 7.32957 28.0067C7.33471 28.0481 7.46278 28.0205 7.46489 28.0268C7.51854 28.1686 7.17804 28.0568 7.06407 28.1559C7.32396 28.1416 7.2769 28.2 7.3054 28.2999C7.31935 28.348 7.41998 28.3218 7.43028 28.3262C7.58313 28.3975 7.38571 28.4472 7.34532 28.46C7.19676 28.5073 7.37229 28.5587 7.27299 28.5909C7.17443 28.623 7.02832 28.5491 7.0302 28.6448C7.12323 28.6717 7.36634 28.6006 7.40574 28.6733C7.55478 28.9477 7.36404 29.4598 7.34422 29.6804C7.32442 29.9006 7.34159 29.9717 7.30797 30.1C7.24718 30.3317 7.42755 30.2468 7.51011 30.3906C7.59267 30.5349 7.14886 30.4648 7.05345 30.4855C6.95809 30.5059 7.05625 30.5281 7.00383 30.5535C6.95142 30.5787 6.88655 30.5241 6.86687 30.5834C6.84721 30.6428 7.01686 30.8053 7.11662 30.8263C7.32797 30.8709 7.54978 30.7977 7.47185 30.9549C7.46722 30.9639 7.35052 30.9346 7.33873 30.9692C7.24889 31.2442 7.24332 31.5298 7.16386 31.8045C7.15275 31.8422 7.02293 31.8085 7.015 31.8304C6.93196 32.0593 7.15086 31.9775 7.39403 32.103C7.07042 32.0748 6.87244 32.1442 6.87053 32.3179C6.86927 32.4223 7.0106 32.4044 7.11021 32.4719C7.14024 32.4922 7.0432 32.5661 7.10966 32.5795C7.32694 32.6236 7.57016 32.554 7.47331 32.7331C7.46871 32.741 7.34978 32.716 7.34257 32.7431C7.29543 32.9187 7.52269 32.9396 7.55021 33.1294C7.57181 33.2781 7.43323 33.5426 7.41069 33.7119C7.04686 33.7084 7.13017 33.8683 7.38103 33.9332C7.37076 34.0431 7.38494 34.1618 7.35026 34.268C7.33844 34.3046 7.23311 34.2805 7.22172 34.2851C7.04318 34.3558 7.28723 34.4036 7.2968 34.4273C7.3898 34.6844 7.20483 34.8939 7.3856 35.1392C7.39211 35.1479 7.64484 35.162 7.46031 35.2276C7.44759 35.2319 7.33261 35.1508 7.32371 35.2663C7.3148 35.3817 7.17932 35.5993 7.29643 35.7596C7.32462 35.7983 7.52978 35.8964 7.36949 35.9752C7.34772 35.9857 7.27524 35.9742 7.23491 35.9893C7.10639 36.0383 7.36183 36.065 7.14482 36.1225C6.92782 36.18 6.7653 36.2997 6.91502 36.4613C6.91938 36.4665 7.12184 36.5047 7.11864 36.5555C7.11335 36.6367 7.07117 36.7519 7.07249 36.8366C7.0732 36.8771 7.19892 36.8512 7.20122 36.8582C7.27166 37.131 7.15959 37.3251 7.11095 37.6172C7.10178 37.6708 7.27322 37.8247 7.13768 37.9284C6.98931 38.0423 6.37211 37.9253 6.51915 38.187C6.57796 38.2925 7.361 38.4262 6.95531 38.6158C7.05583 38.9837 6.8482 39.3239 6.99174 39.6929C6.9981 39.7094 7.21664 39.7619 7.21367 39.8009C7.20883 39.8588 7.10669 39.8906 7.09996 39.9319C7.06919 40.1052 7.15658 40.2637 7.14299 40.4307C7.13805 40.4941 7.03244 40.472 7.02653 40.5476C7.02073 40.6232 7.1598 40.6736 7.09263 40.776C7.04144 40.8534 6.75718 40.9307 6.72404 41.0334C7.00444 41.0373 6.99866 41.1079 7.07268 41.2332C7.08704 41.2573 7.18463 41.2315 7.19646 41.2429C7.24675 41.2892 7.16587 41.3322 7.22063 41.3762C7.23378 41.3869 7.32953 41.3874 7.34569 41.3962C7.4867 41.4707 7.27131 41.5934 7.23381 41.6145C7.09138 41.6952 7.21592 41.733 7.15983 41.7949C7.10375 41.8568 7.03365 41.7643 6.99962 41.8366C6.92923 41.9863 6.94469 42.1788 6.94029 42.3309C6.93913 42.3916 7.06695 42.3502 7.06975 42.3588C7.10217 42.4843 6.9662 42.6112 7.22081 42.6808C6.56249 42.7678 7.28466 42.7565 7.15288 42.9359C7.14222 42.95 6.83091 42.968 6.7852 42.9137C6.73954 42.8595 6.83685 42.7772 6.76561 42.702C6.74889 42.6841 6.45717 42.582 6.4395 42.5681C6.30139 42.459 6.76661 42.4435 6.79216 42.4378C7.06791 42.3723 6.75363 42.2475 6.73192 42.2147C6.63242 42.0643 6.69784 41.9366 6.62682 41.8109C6.58091 41.7287 6.27618 41.7207 6.28551 41.6561C6.31634 41.4415 6.74144 41.3665 6.37285 41.1643C6.29424 41.1209 5.96117 41.164 6.22307 41.0086C6.23958 40.9989 6.47917 40.8835 6.32762 40.8168C6.30852 40.8084 6.21145 40.8087 6.20329 40.7977C6.15055 40.7237 6.22788 40.6743 6.19084 40.5937C6.15381 40.5131 6.09859 40.4162 6.13152 40.3242C6.1512 40.2687 6.33205 40.1976 6.37633 40.171C6.50388 40.0961 6.29475 40.0157 6.4492 39.9692C6.60443 39.9224 6.84018 40.0139 6.94047 39.8911C6.68829 39.8866 6.42945 39.8761 6.17583 39.8688C6.18471 39.5997 6.26625 39.3349 6.25511 39.0649C6.25348 39.0314 6.1179 39.0656 6.11266 39.0297C6.09112 38.8783 6.18777 38.7461 6.14928 38.589C6.11897 38.4675 5.97542 38.3342 5.93926 38.2071C6.22783 38.1295 6.12987 37.9409 6.15624 37.8039C6.16535 37.7559 6.24242 37.7591 6.26756 37.725C6.36056 37.5962 6.10555 37.6565 6.06542 37.6212C5.89414 37.4698 6.47134 37.4568 6.45708 37.2783C6.45652 37.2688 6.14885 37.1532 6.12969 37.1373C6.00475 37.0361 6.23677 37.1205 6.25951 37.0572C6.30105 36.9415 6.37453 36.8612 6.28441 36.7255C6.25772 36.686 6.06595 36.5911 6.21428 36.5143C6.2337 36.5042 6.3354 36.5097 6.34136 36.5016C6.44063 36.3544 6.12109 36.3505 6.01287 36.2664C5.90467 36.1822 6.12525 36.0522 6.18883 36.0258C6.3533 35.9566 6.25912 36.0788 6.27525 36.0826C6.46732 36.1266 6.43426 36.0318 6.45049 35.9594C6.7638 35.9489 6.745 35.8476 6.46605 35.8843C6.43558 35.8884 6.4648 35.9448 6.45049 35.9594C6.14308 35.8958 6.10371 35.7845 6.39098 35.6615C6.52561 35.604 6.6826 35.6584 6.62517 35.4835C6.59924 35.4042 6.38351 35.4348 6.32469 35.3648C6.1905 35.2048 6.39174 34.997 6.36003 34.8321C6.34852 34.7722 6.23043 34.8305 6.21849 34.7896C6.18644 34.681 6.27505 34.5853 6.22966 34.4763C6.2254 34.4664 6.10178 34.4905 6.10021 34.4566C6.08585 34.1996 6.16503 33.9758 6.16722 33.7074C6.16823 33.5778 6.10005 33.346 6.11376 33.2116C6.13678 32.9788 6.31654 32.6924 6.27287 32.4936C6.24492 32.3638 6.12128 32.3923 6.03704 32.3367C5.87374 32.2295 6.16624 32.0396 6.21153 32.0141C6.21303 32.0133 6.24218 32.1249 6.30565 32.0653C6.4379 32.0307 6.21211 32.0153 6.21153 32.0141C6.24079 31.9973 6.26886 31.7743 6.24523 31.73C6.23231 31.706 6.11516 31.7194 6.11064 31.7069C6.00581 31.4087 5.97604 31.1101 6.03081 30.8077C6.03318 30.8024 6.16421 30.8104 6.16814 30.7979C6.2264 30.6228 6.0661 30.5107 5.97093 30.3663C5.87581 30.222 5.90767 30.1075 6.13262 30.022C6.10429 29.9131 6.20374 29.7568 6.26409 29.6669C6.32443 29.577 6.06936 29.5644 6.06432 29.5565C5.90292 29.3097 6.04892 29.1671 6.07164 28.9111C6.08288 28.7893 6.04588 28.5479 6.01799 28.4161C5.99552 28.3119 6.0553 28.2492 6.01708 28.1532C6.01197 28.1402 5.8984 28.1533 5.89403 28.1494C5.75815 28.0423 6.03579 28.0937 6.08537 28.0716C6.26569 27.9914 6.36173 27.9419 6.2769 27.8047C6.25748 27.7731 5.85772 27.6809 5.83434 27.6233C5.80468 27.5483 5.94797 27.5766 5.91326 27.4981C5.91042 27.4913 5.82202 27.4927 5.82592 27.4443C5.84285 27.2194 5.89428 26.9741 5.88542 26.7404C5.88455 26.7085 5.74434 26.7494 5.74077 26.7033C5.72415 26.4868 5.72934 26.2495 5.79497 26.0386C5.81157 25.9867 5.90974 26.0193 5.93889 26.008C6.11527 25.9388 5.859 25.8407 5.85411 25.8245C5.73096 25.4384 5.96288 25.1429 5.85247 24.7493C5.84598 24.7279 5.57125 24.563 5.80687 24.4895C5.82255 24.4844 6.06361 24.4116 5.89879 24.3473C5.88848 24.3433 5.76438 24.3886 5.77703 24.3095C5.78965 24.2303 5.70677 24.1029 5.84313 23.9942C5.88608 23.9597 6.12655 23.8783 5.93486 23.7756C5.92148 23.7689 5.48805 23.6102 5.7871 23.5536C5.83632 23.5444 6.15278 23.5541 5.99053 23.4314C5.95907 23.408 5.88849 23.4505 5.84441 23.3888C5.77648 23.2942 5.86123 23.1689 5.72026 23.0527C5.69531 23.0324 5.48052 22.9461 5.64354 22.8768C5.66908 22.866 5.77472 22.8866 5.78655 22.85C5.84326 22.6762 5.77259 22.4941 5.84569 22.3176C5.87138 22.2551 6.04217 22.2871 6.08794 22.2219C6.13369 22.1567 6.17771 22.0254 6.09966 21.9572C6.02157 21.8889 5.74937 21.9635 5.72759 21.8613C5.63299 21.417 5.79267 20.9768 5.81603 20.5332C5.81952 20.4674 5.72211 20.5219 5.72026 20.425C5.71302 20.0675 5.62169 19.4502 5.82866 19.14C5.99443 18.8915 6.12064 19.2042 6.1881 19.0143C6.22028 18.9227 5.90381 18.8235 5.89385 18.8014C5.79264 18.5852 5.93283 18.435 5.88982 18.2405C5.88089 18.2003 5.75263 18.2397 5.74645 18.2055C5.7242 18.0887 5.78146 17.966 5.77098 17.8544C5.76599 17.8043 5.66803 17.8135 5.67559 17.7675C5.69255 17.6572 5.73373 17.5598 5.82555 17.4523C5.83392 17.4425 5.95578 17.5086 5.96031 17.427C5.9673 17.295 6.05788 17.1312 5.96434 16.9793C5.9362 16.9343 5.71231 16.9325 5.86693 16.8356C5.89923 16.8153 6.16808 16.8412 5.93578 16.7284C5.89718 16.7094 5.58384 16.5199 5.78582 16.4269C5.83897 16.4024 6.05898 16.3397 6.0244 16.2856C6.01888 16.2782 5.89862 16.3077 5.88689 16.2628C5.84764 16.1045 5.86047 15.9387 5.8228 15.7761C5.81251 15.7327 5.68806 15.7974 5.67668 15.7327C5.64523 15.5547 5.67692 15.3326 5.71587 15.1586C5.73047 15.0945 5.83356 15.1388 5.84478 15.1341C6.02725 15.0591 5.78095 15.0147 5.76659 14.9898C5.68059 14.8349 5.79629 14.7169 5.76567 14.5741C5.75754 14.5346 5.6401 14.5626 5.62963 14.5547C5.52731 14.4734 5.73821 14.534 5.76146 14.4825C5.82729 14.3382 5.81785 14.1774 5.80284 14.0315C5.79716 13.9779 5.66099 14.0381 5.65746 13.99C5.63399 13.7054 5.64702 13.4094 5.72209 13.1316C5.73648 13.0793 5.84133 13.1122 5.86528 13.1013C6.03284 13.0262 5.80429 12.916 5.78252 12.8907C5.68311 12.7755 5.77584 12.7307 5.75853 12.629C5.67236 12.1319 5.73377 11.5182 5.77172 11.049C5.82055 10.4376 5.9203 9.96316 5.8944 9.38012C5.89288 9.34306 5.75339 9.38043 5.75029 9.34849C5.71667 8.93607 5.77117 8.53005 5.73088 8.1168C5.72782 8.08289 5.59559 8.13177 5.58623 8.07735C5.56612 7.96571 5.5733 7.82428 5.61553 7.7114C5.63587 7.65635 5.74935 7.7302 5.7675 7.67478C5.81005 7.54574 5.81947 7.40742 5.79827 7.27487C5.78896 7.21847 5.65371 7.30357 5.65215 7.23025C5.63873 6.73084 5.61544 6.24036 5.79058 5.73568C5.8026 5.70109 6.07748 5.67073 6.02477 5.59717C5.94848 5.59163 5.85875 5.59193 5.77721 5.58951C5.73329 4.86249 5.82858 4.1429 5.84331 3.41384C5.8439 3.3831 5.69826 3.43622 5.69866 3.37671C5.70081 3.03227 5.66046 2.6978 5.80522 2.34548C5.81938 2.31052 6.0756 2.32846 6.03685 2.22544C6.02978 2.20727 5.99561 2.05212 5.93999 2.012C5.9316 2.00655 5.81201 2.03486 5.80852 1.98486C5.79036 1.69432 5.81766 1.38985 5.89073 1.09981C5.90276 1.053 6.03011 1.10285 6.03978 1.06951C6.10739 0.833011 6.01057 0.575767 6.12621 0.349781C6.20407 0.198513 6.42421 0.254517 6.64092 0.174135C6.67149 0.162766 6.67633 0.069097 6.80241 0.064253C7.11945 0.0518172 7.46661 0.0971877 7.80455 0.0785711C7.87733 0.0746379 7.79894 -0.0508096 7.97483 0.0234633C7.98661 0.0286521 8.04499 0.119602 8.10466 0.142003C8.14591 0.1576 8.27413 0.129494 8.32695 0.161316C8.37971 0.193135 8.27222 0.228099 8.33427 0.280855C8.39708 0.333586 8.54295 0.3104 8.56022 0.41571ZM6.5338 29.262C6.65629 29.1787 6.20765 29.1665 6.31499 29.2565C6.32071 29.2609 6.52779 29.2663 6.5338 29.262ZM6.60466 39.3364C6.80254 39.2275 6.51158 39.1531 6.35875 39.2299C6.20609 39.3066 6.54467 39.3696 6.60466 39.3364ZM6.74913 40.4652C6.90515 40.338 6.26896 40.3179 6.39757 40.4542C6.40484 40.4621 6.74007 40.4726 6.74913 40.4652ZM6.70262 0.546903C6.70858 0.545754 6.71439 0.478421 6.70848 0.476812C6.56599 0.440958 6.55448 0.575597 6.70262 0.546903ZM6.90642 41.5853C6.99248 41.5456 6.89313 41.4313 6.78612 41.4806C6.70003 41.5203 6.79937 41.6348 6.90642 41.5853ZM7.01262 24.9185C7.0193 24.9172 7.02532 24.8689 6.98753 24.8699C6.86582 24.8732 6.90017 24.9403 7.01262 24.9185ZM6.91374 43.4891C6.93769 43.2078 7.46321 43.0373 7.40391 43.3436C7.39318 43.3991 7.23633 43.2241 7.18895 43.2947C7.10263 43.4239 7.4326 43.5096 7.25578 43.6415C7.22342 43.6653 6.91121 43.5052 6.91301 43.4886C6.91325 43.4888 6.9135 43.489 6.91374 43.4891ZM7.07268 29.2141C7.07861 29.2124 7.08423 29.1456 7.07835 29.144C6.93592 29.1078 6.92451 29.2424 7.07268 29.2141ZM7.29002 22.1017C7.30266 22.098 7.31449 21.9429 7.30284 21.9379C7.06993 21.857 7.04533 22.1705 7.29002 22.1017ZM7.40098 33.7146C7.54427 33.7875 7.56114 33.8747 7.38121 33.9328C7.39076 33.8604 7.39217 33.7875 7.40098 33.7146Z" fill="white"/>
<path id="Vector 4" d="M1.80229 35.4918C1.97744 35.6211 2.10078 35.8233 2.18398 36.0059C2.20713 36.0595 2.12861 36.0904 2.14206 36.1301C2.16777 36.2068 2.24885 36.2412 2.26785 36.3199C2.27421 36.3467 2.15876 36.4055 2.1676 36.4317C2.21778 36.5759 2.33027 36.659 2.40266 36.7867C2.75789 37.4149 3.15591 37.9795 3.55552 38.5703C3.68727 38.765 3.7749 39.0587 3.96355 39.2168C3.98576 39.2353 4.06203 39.1535 4.07252 39.1521C4.23443 39.132 4.04189 39.2483 4.05287 39.3101C4.09498 39.5524 4.23738 39.7503 4.39971 39.8889C4.46927 39.9479 4.58718 39.7421 4.54547 39.889C4.54276 39.8991 4.43623 39.9534 4.44145 39.9804C4.4537 40.0419 4.5344 40.1114 4.55351 40.1511C4.58969 40.2278 4.59903 40.2379 4.64606 40.3007C4.70974 40.3875 4.74113 40.5234 4.83243 40.5983C4.85219 40.614 4.92764 40.5148 4.96777 40.5333C5.0079 40.5518 5.06313 40.6403 5.06192 40.6853C5.06073 40.7303 4.97666 40.7761 4.96324 40.7942C4.84911 40.946 5.12302 40.8867 5.1374 40.8952C5.39336 41.0536 5.42436 41.3327 5.58429 41.5434C5.70502 41.702 5.87325 41.8464 5.98138 42.002C6.11208 42.1906 6.17343 42.3825 6.31425 42.5545C6.3289 42.5726 6.4266 42.4667 6.44473 42.4886C6.63737 42.7222 6.80443 42.9774 6.90173 43.2763C6.91182 43.3069 6.78782 43.3473 6.79183 43.3822C6.81869 43.5942 6.7861 43.972 7.29167 43.7509C7.34439 43.8625 7.41859 44.007 7.39084 44.1588C7.37378 44.2576 7.22201 44.2759 7.32107 44.3179C7.34326 44.3275 7.42587 44.2384 7.45178 44.2579C7.52047 44.3096 7.56388 44.3825 7.61586 44.4455C7.64774 44.4845 7.68186 44.5193 7.72546 44.5435C7.74967 44.5567 7.8339 44.4916 7.85355 44.4865C8.01359 44.4471 7.85114 44.6614 7.84737 44.6876C7.81371 44.8796 7.92778 44.9212 7.95039 44.9392C7.95294 44.942 8.03254 44.8235 8.03181 44.8179C8.0276 44.8078 7.99845 44.7869 7.94791 44.7775L7.3483 44.9505C7.42844 44.8766 7.52671 44.8067 7.63853 44.755C7.6751 44.7381 7.73806 44.8477 7.76013 44.8438C7.85616 44.8255 7.70027 44.6564 7.78826 44.6354C7.80664 44.6307 7.87628 44.7084 7.88662 44.7141C8.0495 44.8027 7.89159 44.5992 7.89459 44.5877C7.93653 44.4292 8.19935 44.5335 8.26779 44.3992C8.27585 44.3828 8.15084 44.3256 8.17947 44.285C8.36641 44.017 8.61519 43.7755 8.90375 43.5872C8.94806 43.5583 9.0022 43.6485 9.01364 43.6537C9.19434 43.7333 9.01741 43.5462 9.02033 43.5273C9.05014 43.3802 9.29189 43.4202 9.10981 43.1606C9.53826 42.7899 9.73785 42.2474 10.287 41.9683C10.2937 41.9646 10.3868 42.05 10.3998 42.0422C10.5574 41.9492 10.3817 41.858 10.2572 41.6251C10.2264 41.566 10.5081 41.6705 10.5297 41.6768C10.6087 41.7011 10.7419 41.8354 10.7595 41.837C10.9003 41.846 10.3959 41.4881 10.4571 41.4049C10.4599 41.4029 10.5434 41.4815 10.5576 41.4812C10.6023 41.4806 10.5819 41.4321 10.6292 41.4339C10.7384 41.4385 10.9928 41.5998 10.9064 41.4221C10.895 41.3992 10.6018 41.206 10.6696 41.1416C10.6966 41.1164 10.7892 40.9797 10.8337 40.9572C10.8787 40.934 10.9518 41.0257 10.9576 41.026C11.1504 41.0152 11.1732 41.0891 11.3884 41.1695C11.603 41.2492 11.1677 40.9538 11.1351 40.8989C11.1025 40.8442 11.2556 40.8432 11.3035 40.8502C11.3513 40.8572 11.3932 40.9219 11.4244 40.9202C11.629 40.908 11.2465 40.7209 11.204 40.6374C11.103 40.4398 11.4653 40.604 11.5511 40.5503C11.5743 40.5358 11.4902 40.5007 11.4966 40.4775C11.5226 40.3871 11.6521 40.4153 11.6204 40.2682C11.6153 40.2442 11.4722 40.0413 11.643 40.0983C11.6676 40.1066 11.7341 40.1805 11.774 40.1623C11.8337 40.1349 11.9095 40.0654 11.9184 39.9969C11.9248 39.9465 11.7647 39.8954 11.8379 39.8783C11.8705 39.8708 11.9198 39.963 11.9748 39.9443C12.0295 39.9259 12.0965 39.8247 12.1199 39.7862C12.1434 39.7473 12.03 39.6972 12.0255 39.6895C12.0001 39.6443 12.0027 39.5395 12.0073 39.5332C12.221 39.2062 12.5939 39.0321 12.7565 38.6817C12.7695 38.6543 12.6531 38.5972 12.654 38.5922C12.6685 38.478 12.9014 38.739 13.0355 38.7461C12.8167 38.6056 12.8792 38.5983 12.8969 38.5232C12.9053 38.4869 12.812 38.4447 12.8054 38.4362C12.7094 38.3067 12.8917 38.3904 12.9301 38.406C13.0714 38.4631 12.9486 38.3323 13.0433 38.3701C13.1374 38.4074 13.2267 38.5348 13.2647 38.477C13.1995 38.4079 12.9707 38.311 12.9684 38.2454C12.9583 37.9993 13.3253 37.8052 13.4316 37.6865C13.5379 37.5677 13.5532 37.5153 13.633 37.4589C13.7776 37.3566 13.5945 37.3043 13.5852 37.1723C13.5762 37.0401 13.9129 37.3335 14 37.3754C14.0868 37.4174 14.0151 37.3485 14.0686 37.3632C14.1221 37.378 14.1531 37.4473 14.1936 37.4232C14.2343 37.3989 14.1606 37.2067 14.087 37.1376C13.9311 36.9914 13.7185 36.909 13.8467 36.8602C13.8542 36.8575 13.9384 36.941 13.9622 36.9272C14.1484 36.815 14.2691 36.649 14.4463 36.5309C14.4708 36.5147 14.5642 36.6082 14.5797 36.5996C14.7414 36.5104 14.5274 36.4354 14.3777 36.2237C14.6333 36.4232 14.8249 36.4938 14.897 36.3917C14.9405 36.3303 14.8165 36.2612 14.7617 36.1649C14.7451 36.1359 14.8552 36.1467 14.8058 36.1013C14.6442 35.9526 14.4152 35.8567 14.5677 35.805C14.5747 35.8029 14.6628 35.8848 14.6798 35.8728C14.7898 35.7951 14.6106 35.6546 14.6646 35.5264C14.6781 35.4944 14.7099 35.4645 14.7497 35.4358L14.7389 35.4524C14.8208 35.3881 14.9388 35.3279 14.9949 35.2653C15.3043 35.4569 15.2931 35.3149 15.1021 35.1458C15.1516 35.0838 15.1829 35.0039 15.2515 34.9566C15.275 34.9401 15.3567 35.0088 15.3682 35.0117C15.5477 35.0593 15.3553 34.9052 15.3556 34.8858C15.3688 34.6807 15.6043 34.644 15.5351 34.4017C15.5325 34.393 15.3183 34.2587 15.5016 34.3098C15.5142 34.3135 15.5852 34.421 15.6339 34.3537C15.6825 34.2867 15.8774 34.2175 15.8313 34.06C15.8203 34.022 15.6751 33.8611 15.8425 33.8899C15.8652 33.8939 15.9246 33.9362 15.9651 33.9463C16.0946 33.9778 15.8803 33.8375 16.0902 33.9063C16.3 33.975 16.4846 33.9769 16.4089 33.8027C16.4069 33.7973 16.2422 33.6764 16.2623 33.6459C16.2948 33.5972 16.3712 33.5442 16.3988 33.4899C16.4119 33.4638 16.2923 33.421 16.2927 33.4154C16.3227 33.2098 16.4866 33.1394 16.6267 32.9754C16.6527 32.9453 16.551 32.7688 16.7055 32.7645C16.8749 32.7593 17.3859 33.116 17.3414 32.8795C17.3241 32.7836 16.6682 32.3456 17.0919 32.4056C17.1204 32.124 17.415 31.9953 17.4016 31.693C17.401 31.6795 17.2206 31.5506 17.2354 31.5267C17.2578 31.4913 17.3597 31.5149 17.3787 31.4909C17.4601 31.3922 17.4304 31.2512 17.4938 31.1488C17.5177 31.1097 17.6064 31.1692 17.635 31.1223C17.6635 31.0754 17.5529 30.9839 17.6449 30.9456C17.7149 30.9169 17.9961 30.9864 18.0574 30.9331C17.8043 30.8124 17.8309 30.7689 17.8018 30.6556C17.796 30.6339 17.6996 30.6098 17.6923 30.5974C17.6606 30.5462 17.7469 30.5521 17.7104 30.5005C17.7016 30.488 17.6148 30.4477 17.6028 30.4352C17.4969 30.3279 17.7295 30.3374 17.7698 30.3395C17.9234 30.3461 17.8214 30.2697 17.8909 30.2524C17.9605 30.2351 17.9966 30.3249 18.0492 30.2916C18.158 30.2226 18.2012 30.0897 18.2501 29.9918C18.2691 29.9525 18.1404 29.9272 18.1404 29.9203C18.1478 29.825 18.3095 29.7966 18.0974 29.6473C18.7238 29.8591 18.0613 29.5718 18.2343 29.5074C18.2481 29.5025 18.5378 29.6172 18.5636 29.6717C18.5893 29.7262 18.4762 29.7408 18.5191 29.8194C18.5291 29.838 18.7654 30.0241 18.7772 30.0408C18.8707 30.1698 18.4418 29.9892 18.4168 29.9825C18.146 29.9125 18.3958 30.1229 18.4056 30.1538C18.4513 30.2943 18.3541 30.3503 18.3807 30.463C18.3978 30.5362 18.6725 30.6682 18.6446 30.7069C18.5516 30.8359 18.1429 30.707 18.4159 30.9948C18.474 31.0564 18.7893 31.1682 18.5042 31.1605C18.4861 31.1601 18.2338 31.1346 18.3505 31.2428C18.3652 31.2564 18.4532 31.2973 18.4572 31.3081C18.4821 31.3793 18.3968 31.3791 18.4055 31.4478C18.414 31.5167 18.4336 31.6045 18.3752 31.651C18.3401 31.679 18.1544 31.6484 18.1061 31.6468C17.9675 31.6412 18.1311 31.784 17.9772 31.7478C17.8226 31.7113 17.6385 31.5498 17.5098 31.5864C17.7357 31.6985 17.9658 31.8173 18.1921 31.9319C18.0989 32.1054 17.9412 32.2433 17.8639 32.4253C17.8546 32.4479 17.9873 32.4854 17.9804 32.5113C17.9506 32.6203 17.8209 32.664 17.8039 32.784C17.791 32.8773 17.8753 33.029 17.865 33.1291C17.5819 33.0492 17.6065 33.2166 17.5368 33.294C17.5126 33.3211 17.4452 33.2836 17.4114 33.2942C17.2855 33.3351 17.5322 33.4133 17.5558 33.4548C17.6562 33.6329 17.1402 33.3742 17.0924 33.4959C17.0897 33.5022 17.3224 33.7206 17.3337 33.74C17.4093 33.8642 17.2334 33.7007 17.1915 33.7311C17.115 33.7865 17.0227 33.8035 17.055 33.9337C17.0648 33.9717 17.2004 34.1244 17.043 34.1033C17.0224 34.1006 16.935 34.0485 16.9269 34.0508C16.7883 34.098 17.0674 34.2534 17.1325 34.3599C17.1975 34.4665 16.9579 34.4441 16.8929 34.4301C16.7245 34.3949 16.8503 34.3621 16.8375 34.3518C16.6849 34.2308 16.6804 34.3074 16.6405 34.3458C16.3628 34.2005 16.3436 34.2737 16.6002 34.3862C16.6284 34.3983 16.6228 34.3481 16.6405 34.3458C16.8868 34.5355 16.8808 34.6272 16.5863 34.5649C16.4483 34.5355 16.3311 34.424 16.3185 34.5629C16.3126 34.6258 16.5113 34.7129 16.5371 34.7866C16.5956 34.9552 16.345 34.9872 16.3118 35.1072C16.2997 35.1509 16.4233 35.1734 16.4185 35.2053C16.406 35.2904 16.2938 35.3064 16.2924 35.3982C16.2923 35.4067 16.4078 35.4542 16.3965 35.4765C16.3123 35.6472 16.1596 35.7478 16.0551 35.9151C16.0144 35.9805 15.9866 36.1098 15.9435 36.1985C15.9385 36.2051 15.9262 36.227 15.9208 36.2334C15.9098 36.254 15.898 36.2721 15.8851 36.2863C15.7715 36.4122 15.5068 36.4812 15.4619 36.6243C15.4322 36.7174 15.5459 36.7702 15.5928 36.8508C15.6839 37.0069 15.3652 36.9547 15.3174 36.9443C15.3159 36.9439 15.3372 36.8611 15.2606 36.8607C15.1374 36.8066 15.3175 36.9432 15.3174 36.9443C15.2865 36.9377 15.1724 37.0547 15.1738 37.0944C15.1747 37.116 15.2768 37.1742 15.2754 37.1842C15.2404 37.4208 15.1426 37.6157 14.9739 37.7643C14.9697 37.7661 14.8651 37.687 14.8567 37.6922C14.7374 37.7629 14.8231 37.9209 14.8423 38.0607C14.8614 38.2006 14.7882 38.2505 14.5681 38.1732C14.5467 38.2541 14.4005 38.2905 14.314 38.3094C14.2275 38.3284 14.432 38.4811 14.4329 38.4887C14.4644 38.7265 14.2849 38.729 14.1609 38.8675C14.1017 38.9329 14.0321 39.0976 14.0003 39.1917C13.9757 39.2663 13.9007 39.2692 13.8924 39.3478C13.8912 39.3583 13.9897 39.4157 13.9917 39.4205C14.0588 39.5617 13.8525 39.3721 13.8028 39.3567C13.6217 39.301 13.5224 39.2753 13.535 39.4052C13.5378 39.4351 13.8267 39.7192 13.8219 39.7668C13.8151 39.8281 13.7096 39.7291 13.7054 39.7953C13.705 39.8009 13.7779 39.8509 13.7546 39.8772C13.6465 40.0016 13.5026 40.1164 13.4121 40.2597C13.3994 40.2792 13.5311 40.3358 13.5146 40.3653C13.4368 40.504 13.3345 40.6392 13.1914 40.7271C13.156 40.7482 13.0897 40.672 13.0612 40.6618C12.8884 40.6004 13.0559 40.807 13.053 40.8194C12.9912 41.118 12.6777 41.1573 12.5995 41.4544C12.5957 41.4708 12.7481 41.7289 12.5261 41.6338C12.5111 41.6277 12.2856 41.5282 12.3912 41.6633C12.3978 41.6717 12.5178 41.7177 12.4735 41.7572C12.4293 41.7967 12.4416 41.9207 12.285 41.9041C12.2354 41.8992 12.0069 41.8044 12.1176 41.9779C12.1255 41.9897 12.4066 42.3397 12.1409 42.1962C12.0973 42.1725 11.8462 41.9798 11.9244 42.1475C11.9397 42.1798 12.0148 42.1967 12.0239 42.2588C12.0382 42.354 11.9157 42.3775 11.9784 42.5299C11.9897 42.5566 12.1247 42.7352 11.9637 42.6787C11.9385 42.6699 11.8625 42.595 11.8372 42.6093C11.7174 42.6757 11.6928 42.8271 11.5576 42.8857C11.5099 42.9067 11.387 42.7858 11.3221 42.7961C11.2578 42.8057 11.1642 42.857 11.1966 42.9437C11.2289 43.0305 11.4792 43.1508 11.4515 43.2237C11.3318 43.5393 11.0062 43.7022 10.7885 43.9437C10.7556 43.9802 10.8574 44.0081 10.8145 44.0661C10.6611 44.2749 10.4412 44.697 10.1355 44.7429C9.88877 44.7824 9.93985 44.5211 9.79782 44.5878C9.72996 44.6197 9.9274 44.8773 9.92458 44.8963C9.89663 45.0882 9.7202 45.0799 9.65514 45.2221C9.64196 45.2512 9.75891 45.3118 9.74656 45.3357C9.70482 45.4185 9.60278 45.4486 9.5521 45.5221C9.53022 45.5545 9.60838 45.614 9.5791 45.6356C9.51034 45.6877 9.42934 45.7163 9.30418 45.7175C9.29291 45.7174 9.23722 45.5975 9.19132 45.6412C9.11867 45.7106 8.96396 45.744 8.95043 45.8933C8.94669 45.9377 9.10727 46.094 8.94041 46.0437C8.90559 46.033 8.72862 45.8299 8.83043 46.0573C8.84948 46.0932 8.95566 46.4296 8.75733 46.3391C8.71962 46.3215 8.60896 46.2509 8.54925 46.2344C8.33185 46.402 7.87874 46.5812 7.61536 46.5038C7.57695 46.4765 7.53863 46.4576 7.49802 46.4557C7.47609 46.4547 7.52529 46.5959 7.39643 46.5683C6.93942 46.4483 6.73577 46.2036 6.56142 46.0742C6.51474 46.0373 6.47997 46.1859 6.41298 46.1269C6.23024 45.9629 6.14101 45.7701 6.099 45.6391C6.0839 45.5906 6.18824 45.561 6.19554 45.5517C6.31568 45.4034 6.09476 45.5162 6.07355 45.5104C6.06584 45.5082 6.05883 45.5057 6.05243 45.503C5.95001 45.4575 5.98929 45.3367 5.91158 45.2745C5.889 45.2561 5.80353 45.339 5.79174 45.3404C5.67495 45.3512 5.8728 45.2666 5.87183 45.2243C5.87028 45.1061 5.79721 45.0177 5.72573 44.9419C5.69989 44.915 5.61224 45.0271 5.59034 45.0021C5.45772 44.854 5.34807 44.6774 5.29391 44.4734C5.28377 44.4347 5.38263 44.3925 5.39753 44.3722C5.50229 44.2309 5.27217 44.3026 5.24398 44.3007C5.11595 44.2933 5.17243 44.2132 5.11576 44.1646C4.84081 43.9325 4.63046 43.5441 4.46215 43.2554C4.24176 42.8787 4.11658 42.5477 3.84443 42.2335C3.82719 42.2134 3.73245 42.3192 3.71618 42.3029C3.51132 42.0899 3.37816 41.8273 3.16621 41.6193C3.14903 41.6021 3.06573 41.7105 3.03466 41.6856C2.97009 41.6351 2.91395 41.551 2.89802 41.4617C2.89004 41.4183 3.01188 41.3901 3.002 41.3478C2.97926 41.2493 2.92602 41.1657 2.85099 41.1041C2.81888 41.0781 2.74966 41.2092 2.71626 41.1689C2.4874 40.8979 2.25187 40.6365 2.16643 40.2474C2.1604 40.2205 2.36197 40.0324 2.2879 40.0239C2.22574 40.0683 2.15566 40.1244 2.09079 40.1738C1.73407 39.7962 1.4869 39.3375 1.17035 38.9281C1.15707 38.911 1.06816 39.0322 1.04193 38.9996C0.889723 38.8107 0.705673 38.6516 0.66036 38.3722C0.655393 38.3442 0.859534 38.1888 0.782263 38.1571C0.768258 38.1514 0.671594 38.0897 0.611566 38.1049C0.602757 38.1075 0.52395 38.1995 0.499185 38.1756C0.351782 38.0296 0.236604 37.8534 0.159876 37.6553C0.147479 37.623 0.265926 37.5648 0.257911 37.5411C0.206026 37.3797 0.00953031 37.306 0.000501162 37.129C-0.0108486 37.0046 0.173135 36.8785 0.292642 36.691C0.30957 36.6644 0.26746 36.6162 0.353465 36.5243C0.565621 36.2884 0.83186 36.0629 1.05589 35.8094C1.10393 35.754 0.967463 35.7341 1.13669 35.6513C1.14808 35.6455 1.25066 35.6631 1.30905 35.6373C1.34939 35.6193 1.41921 35.5078 1.48007 35.494C1.53754 35.4769 1.48107 35.5726 1.55789 35.5628C1.63417 35.5515 1.73133 35.4418 1.80229 35.4918ZM13.9261 38.3956C13.7911 38.3752 14.1545 38.6384 14.1035 38.5237C14.1006 38.5178 13.9328 38.3965 13.9261 38.3956ZM17.6372 32.0938C17.4249 32.0776 17.6622 32.2545 17.8241 32.2715C17.9859 32.2881 17.7017 32.0986 17.6372 32.0938ZM17.8606 31.2945C17.6803 31.3109 18.249 31.5963 18.1751 31.4517C18.171 31.4434 17.8711 31.2934 17.8606 31.2945ZM0.510134 36.83C0.513802 36.8252 0.485845 36.7865 0.480933 36.7899C0.359783 36.8688 0.41463 36.9449 0.510134 36.83ZM18.0588 30.4948C17.9687 30.4849 18.0244 30.6015 18.1366 30.6138C18.2268 30.6235 18.171 30.507 18.0588 30.4948ZM11.7303 40.6762C11.7243 40.6731 11.699 40.6979 11.7301 40.7195C11.8302 40.7887 11.8308 40.7291 11.7303 40.6762ZM18.6142 29.2407C18.5106 29.416 17.9802 29.3152 18.1236 29.1381C18.1495 29.1061 18.2422 29.2842 18.306 29.2571C18.4224 29.2075 18.1454 29.0179 18.3456 29.0022C18.3821 28.9994 18.6212 29.2312 18.6147 29.2414C18.6145 29.2412 18.6143 29.241 18.6142 29.2407ZM13.4637 38.1167C13.4581 38.1143 13.426 38.1506 13.4302 38.1549C13.5323 38.2576 13.597 38.1844 13.4637 38.1167ZM10.3086 42.144C10.2968 42.1387 10.22 42.2211 10.2272 42.2309C10.378 42.4179 10.5342 42.2512 10.3086 42.144ZM15.0042 35.2687C14.909 35.1497 14.9264 35.0883 15.1018 35.1459C15.067 35.1851 15.0388 35.2289 15.0042 35.2687Z" fill="white"/>
</g>
</svg>
